<?xml version="1.0" encoding="UTF-8" standalone="no"?>
<!-- Created with Inkscape (http://www.inkscape.org/) -->

<svg
   xmlns:dc="http://purl.org/dc/elements/1.1/"
   xmlns:cc="http://creativecommons.org/ns#"
   xmlns:rdf="http://www.w3.org/1999/02/22-rdf-syntax-ns#"
   xmlns:svg="http://www.w3.org/2000/svg"
   xmlns="http://www.w3.org/2000/svg"
   xmlns:sodipodi="http://sodipodi.sourceforge.net/DTD/sodipodi-0.dtd"
   xmlns:inkscape="http://www.inkscape.org/namespaces/inkscape"
   width="2172.0474"
   height="212.556"
   viewBox="0 0 2172.0472 212.556"
   id="svg4091"
   version="1.1"
   inkscape:version="0.91 r13725"
   sodipodi:docname="drawing.svg">
  <defs
     id="defs4093" />
  <sodipodi:namedview
     id="base"
     pagecolor="#ffffff"
     bordercolor="#666666"
     borderopacity="1.0"
     inkscape:pageopacity="0.0"
     inkscape:pageshadow="2"
     inkscape:zoom="0.35"
     inkscape:cx="866.75972"
     inkscape:cy="634.28571"
     inkscape:document-units="px"
     inkscape:current-layer="layer1"
     showgrid="false"
     inkscape:window-width="1315"
     inkscape:window-height="744"
     inkscape:window-x="51"
     inkscape:window-y="24"
     inkscape:window-maximized="1"
     width="142mm"
     units="px" />
  <metadata
     id="metadata4096">
    <rdf:RDF>
      <cc:Work
         rdf:about="">
        <dc:format>image/svg+xml</dc:format>
        <dc:type
           rdf:resource="http://purl.org/dc/dcmitype/StillImage" />
        <dc:title></dc:title>
      </cc:Work>
    </rdf:RDF>
  </metadata>
  <g
     inkscape:label="Camada 1"
     inkscape:groupmode="layer"
     id="layer1"
     transform="translate(0,-839.80625)">
    <path
       inkscape:connector-curvature="0"
       id="path3746"
       style="fill:#ffffff;fill-opacity:1;fill-rule:evenodd;stroke:none"
       d="m 269.63746,1010.1143 24.62896,-0.076 0,-10.64295 1.10214,0 0.0786,-19.04355 16.1938,0.0833 0,-15.66944 23.64685,0 4.83421,-4.33218 19.31467,0 0.46966,3.24219 22.20644,0 0.48014,8.66437 8.69706,9.01148 4.34308,0.36102 0.96028,27.77736 5.3147,-0.3538 0,8.0187 19.82756,0.097 0.44697,-30.12396 31.02353,0 0.0174,-2.9992 34.66822,0.0905 0,21.66776 5.72893,0 0.48015,-34.99061 7.72588,-0.36102 0,-5.40828 2.89173,0 0.96028,-26.69429 19.31469,-12.26756 18.3435,12.98265 0,58.8038 15.92098,0 0,12.02451 11.08684,0.1389 0.0174,-0.2566 0.91663,0 0,-7.2898 5.18331,0 0,-3.96413 2.10607,0 0,-55.84625 52.30244,0 -0.008,-6.93565 53.90652,0.2777 0.13093,29.58934 10.10474,0 -0.12045,-14.84327 5.06329,0 0.11964,18.34929 9.74464,0.0905 0,14.84328 15.048,0 -0.35967,-22.31352 9.85377,0 0,-7.18558 54.1575,0.0833 0.25137,25.90977 14.92803,0 0,-15.02378 39.48057,0 0,37.0596 14.546,0 0.25138,-14.84329 34.29723,0 0.11964,7.47024 14.68794,-0.0905 0,-7.65769 19.96932,0.2777 0,-3.78371 9.87562,0 -0.121,7.28973 4.93236,0 -0.37101,-14.85022 34.7883,0.19439 0.24009,22.21632 14.93877,0.27048 -0.25137,-70.34934 15.16799,-0.44432 0,11.33032 29.234,0.0972 0,-33.55357 14.8188,0.0972 0.2401,33.35919 9.9847,0.18717 0,7.37304 9.2536,0.0972 0.371,10.78186 9.8648,0.18772 0,-7.56048 68.7253,0.27103 0.1197,18.35623 19.8492,-0.0972 -0.1196,-29.7768 5.3032,0 -0.1197,-10.87904 9.7557,0 0.1092,-37.05265 19.6203,0 0.1196,-14.75302 29.3649,0.0972 0,14.65582 19.7403,0 0,26.15971 14.9279,-0.5343 0,-51.62515 19.8602,0 0,-18.06464 14.9281,0 -0.2505,21.6609 15.168,0.2777 0.2515,33.37307 6.6564,0.0905 0.7202,29.40884 7.0602,-0.0905 -0.1305,-52.27081 10.1157,-0.0972 -0.3711,-14.10042 49.3453,0.0905 0,62.68471 49.4761,0.1805 0.121,25.81258 14.9278,0.27771 -0.1305,-52.08337 19.7402,0.44433 -0.24,-37.59417 19.7293,0.18717 0,14.74608 44.042,0 0.2512,26.6804 c 0.3711,0 0.7421,10.01123 1.1132,10.01123 l 13.6949,15.30842 0.371,29.67961 4.8013,0 0,-7.74794 29.7251,-0.36768 0,-14.01016 39.1095,0 0.1305,-4.33218 19.7294,15.21123 0,-85.36618 10.2466,-0.09 0.1209,-10.6916 63.6513,0 -0.1197,103.42386 29.6049,0.0972 0,11.43445 25.6657,-0.18717 0.1209,-69.50928 57.9769,0.36767 0,5.81096 20.1114,15.11403 0,-37.33034 54.5176,0 0,11.33726 24.0615,0 0.1197,88.49728 10.1157,0.0972 0.1305,25.52798 47.9812,-0.09 0,-7.0953 114.7205,0.1805 0,14.8432 27.1497,-0.09 0.1197,3.5962 39.3058,0.091 0,39.1562 -2171.6161314,0 0,-46.7098 13.9567704,0 0,-9.5947 6.907451,0 3.950246,11.8025 14.207752,0 0,-30.60303 16.903085,0 0,-8.58799 60.813987,-0.0694 0,5.04726 18.34349,0.36102 0,36.01814 70.47134,0.05 0,-9.7266 2.17153,0 -0.33871,-5.0195 4.93233,0 0.89482,5.0195 9.23175,0 -0.48013,-5.0472 29.9323,0.3538 -0.49148,2.5271 16.89217,0 0,4.228" />
  </g>
</svg>
